<svg xmlns="http://www.w3.org/2000/svg" viewBox="0 0 500 500"><path d="M467.6 251.91c-4.93 41.8-24 90.41-62.14 112.73-57.59 33.75-52.77 85.64-165.19 108.2a231.26 231.26 0 0 1-49.84 4.71 194.66 194.66 0 0 1-24.47-2C94.51 465.12 46.43 415.46 28.79 355.5 5.58 276.66 51.93 225 82.65 193.94s53.23-128 163.57-151A223.75 223.75 0 0 1 297.45 38c39.26 1 82.08 13.86 111.71 40.76q3.33 3 6.5 6.28c41.18 42.29 58.68 109.88 51.94 166.87Z" style="fill:#630a37"/><path d="M467.6 251.91c-4.93 41.8-24 90.41-62.14 112.73-57.59 33.75-52.77 85.64-165.19 108.2a231.26 231.26 0 0 1-49.84 4.71 194.66 194.66 0 0 1-24.47-2C94.51 465.12 46.43 415.46 28.79 355.5 5.58 276.66 51.93 225 82.65 193.94s53.23-128 163.57-151A223.75 223.75 0 0 1 297.45 38c39.26 1 82.08 13.86 111.71 40.76q3.33 3 6.5 6.28c41.18 42.29 58.68 109.88 51.94 166.87Z" style="fill:#fff;opacity:.7000000000000001"/><path d="M22.26 265.78C25.37 267.14 33 267 33 267s-1.64-5-1.78-5.28c-1.69-3.52-6.97-9.28-11.22-8.72a5.13 5.13 0 0 0-4.12 6.42c.68 3 3.73 5.21 6.38 6.36Z" style="fill:#263238"/><path d="M24.88 287.81c3.23.47 10-1.5 10.55-1.65a91.77 91.77 0 0 0 4.12 11.39c.93 2.16 1.94 4.31 3 6.45-.62-.91-1.18-1.72-1.27-1.82-2.53-2.93-9.14-7.09-13.13-5.4a5.12 5.12 0 0 0-2.27 7.29c1.47 2.68 5 4 7.86 4.42s8.72-1.14 10.25-1.57c.41.81.81 1.63 1.22 2.45 2 3.91 3.94 7.81 5.76 11.69.65 1.37 1.23 2.74 1.82 4.11-.55-.81-1-1.48-1.11-1.58-2.53-2.92-9.14-7.09-13.13-5.39a5.13 5.13 0 0 0-2.27 7.28c1.47 2.68 5 4 7.86 4.42s8.15-1 10-1.49c.56 1.42 1.13 2.84 1.6 4.24.31 1 .67 1.87.92 2.86s.54 1.93.81 2.88c.44 1.85.91 3.76 1.3 5.57.28 1.27.52 2.47.77 3.69-.62-1.37-1.9-4-2-4.23-2.05-3.28-8-8.4-12.16-7.33A5.14 5.14 0 0 0 42 343c1 2.87 4.34 4.72 7.1 5.56 3.05.93 9.78.08 10.62 0 .41 2 .78 4 1.1 5.83.73 4.1 1.27 7.77 1.68 10.88h2.84c-.49-3.22-1.14-7.05-2-11.35-.41-2-.88-4.22-1.38-6.46a55.55 55.55 0 0 0 5.93-2.78c2.21 2.4 7.9 5.21 8.63 5.57-.77 1.9-1.54 3.74-2.3 5.47-1.57 3.61-3.06 6.82-4.38 9.55h3.07c1.13-2.52 2.38-5.38 3.68-8.55.79-1.93 1.6-4 2.41-6.15.82.17 7.48 1.53 10.59.83 2.82-.64 6.24-2.23 7.5-5a5.14 5.14 0 0 0-2.83-7.09c-4.11-1.38-10.38 3.29-12.68 6.4-.13.18-1.38 2.34-2.14 3.71.32-.87.65-1.72 1-2.62.65-1.79 1.25-3.59 1.91-5.53.28-.95.57-1.9.85-2.87s.51-2 .78-3c.56-2.34 1-4.75 1.41-7.18 1.56.57 7.15 2.52 10 2.31s6.5-1.26 8.17-3.82a5.14 5.14 0 0 0-1.73-7.44c-3.85-2-10.75 1.68-13.49 4.41-.17.17-1.92 2.35-2.86 3.56.23-1.46.47-2.92.65-4.41.54-4.29.94-8.66 1.37-13 .13-1.34.27-2.66.41-4 .56.21 7.15 2.66 10.39 2.44 2.89-.21 6.5-1.27 8.17-3.83a5.12 5.12 0 0 0-1.72-7.43c-3.85-2-10.76 1.67-13.5 4.4-.2.21-2.71 3.35-3.31 4.18.31-2.93.64-5.84 1.09-8.7a89.63 89.63 0 0 1 2.5-11.45c.25.1 7.12 2.7 10.45 2.46 2.88-.2 6.5-1.26 8.16-3.82a5.13 5.13 0 0 0-1.72-7.44c-3.85-2-10.75 1.68-13.5 4.41-.21.21-2.91 3.59-3.36 4.24.07-.22.11-.45.18-.67a66.15 66.15 0 0 1 4.53-10.82c1-1.93 2-3.72 3.1-5.44 1.23.62 6.88 3.36 9.89 3.48s6.6-.54 8.54-2.9a5.13 5.13 0 0 0-.89-7.58c-3.62-2.4-10.88.49-13.9 2.9-.17.13-1.69 1.65-2.79 2.77.49-.77 1-1.57 1.47-2.3 1.81-2.73 3.64-5.11 5.27-7.22.94-1.18 1.82-2.24 2.65-3.22 1.52 0 7.65-.21 10.33-1.47s5.61-3.52 6.24-6.51a5.13 5.13 0 0 0-4.29-6.31c-4.31-.47-9.43 5.44-11 9-.14.31-1.71 5.33-1.64 5.33h.1c-.82.92-1.68 1.92-2.6 3-1.69 2.07-3.57 4.42-5.45 7.12a90.82 90.82 0 0 0-5.65 9 67.42 67.42 0 0 0-4.83 10.87 1 1 0 0 1 0 .14c0-1.27 0-4.82-.07-5.1-.49-3.83-3.71-10.95-8-11.74a5.12 5.12 0 0 0-5.91 4.82c-.25 3 2 6.1 4.11 8 2.43 2.18 9.18 4.28 9.72 4.44a89.87 89.87 0 0 0-2.85 11.77c-.42 2.32-.76 4.67-1.08 7v-2.22c-.5-3.84-3.72-11-8-11.74a5.12 5.12 0 0 0-5.91 4.82c-.25 3 2 6.1 4.11 8s7.91 3.86 9.43 4.35c-.12.9-.24 1.81-.35 2.71-.52 4.35-1 8.69-1.64 12.94-.21 1.49-.48 3-.75 4.42v-1.92c-.5-3.83-3.71-11-8-11.74a5.13 5.13 0 0 0-5.92 4.82c-.25 3.05 2 6.1 4.12 8s7.35 3.68 9.15 4.26c-.32 1.49-.63 3-1 4.42-.27 1-.47 1.93-.81 2.9s-.61 1.9-.91 2.84c-.66 1.79-1.32 3.64-2 5.37-.47 1.21-.93 2.35-1.39 3.5.23-1.49.63-4.41.63-4.65a19.89 19.89 0 0 0-2.74-9.73 6.07 6.07 0 0 0-.07-1.13 5.12 5.12 0 0 0-6.27-4.35c-4.18 1.11-6.84 8.46-7 12.33 0 .22.14 2.71.26 4.28-.21-.91-.41-1.8-.63-2.73-.44-1.86-.94-3.69-1.46-5.67-.28-.94-.57-1.9-.87-2.86s-.67-2-1-2.93c-.83-2.26-1.77-4.52-2.78-6.77 1.62-.39 7.35-1.85 9.66-3.62s4.72-4.63 4.7-7.69a5.12 5.12 0 0 0-5.54-5.25c-4.31.47-8 7.33-8.83 11.12 0 .23-.3 3-.41 4.55-.62-1.35-1.22-2.7-1.89-4-1.93-3.88-4-7.74-6-11.61-.63-1.18-1.24-2.37-1.86-3.55.58-.14 7.43-1.73 10-3.71 2.3-1.75 4.73-4.63 4.71-7.69a5.13 5.13 0 0 0-5.54-5.25c-4.31.47-8 7.33-8.83 11.12-.06.28-.42 4.29-.46 5.31-1.36-2.61-2.69-5.23-3.89-7.86a90.22 90.22 0 0 1-4.23-10.92c.27-.06 7.43-1.69 10.07-3.72 2.3-1.76 4.73-4.63 4.71-7.69a5.13 5.13 0 0 0-5.54-5.25c-4.31.47-8 7.33-8.83 11.12-.06.3-.45 4.6-.46 5.39-.07-.22-.16-.44-.22-.65A66 66 0 0 1 34 273.79c-.24-2.16-.35-4.23-.41-6.24 1.36-.17 7.59-1 10.17-2.56s5.21-4.09 5.52-7.13a5.13 5.13 0 0 0-4.95-5.86c-4.33 0-8.8 6.4-10 10.08-.07.2-.5 2.31-.8 3.85v-2.72c0-3.28.22-6.28.42-8.93.13-1.51.28-2.88.43-4.15 1.25-.86 6.26-4.4 7.8-6.93s2.74-6 1.61-8.87a5.13 5.13 0 0 0-7-2.9c-3.85 2-4.87 9.74-4.23 13.56.06.32 1.51 5.38 1.58 5.34l.07-.05c-.17 1.22-.33 2.53-.49 4-.26 2.66-.54 5.66-.61 9a89.84 89.84 0 0 0 .25 10.62 67.16 67.16 0 0 0 2 11.73v.13c-.68-1.07-2.69-4-2.87-4.21-2.53-2.92-9.14-7.09-13.13-5.39a5.13 5.13 0 0 0-2.36 7.23c1.5 2.68 5 4.01 7.88 4.42Z" style="fill:#263238"/><path d="M99.18 267.46c.07 0 1.38-5.06 1.43-5.39.53-3.83-.69-11.55-4.59-13.43a5.13 5.13 0 0 0-7 3.09c-1 2.87.28 6.4 1.85 8.82 1.87 2.85 8.31 6.9 8.31 6.91Z" style="fill:#263238"/><path style="fill:#fff;stroke:#263238;stroke-linecap:round;stroke-linejoin:round" d="M89.33 406.3H47.76l-5.19-46.16h51.96l-5.2 46.16z"/><path style="fill:#263238" d="m43.52 368.6.5 4.47h49.05l.51-4.47H43.52zm48.45 14.31.5-4.47H44.63l.5 4.47h46.84z"/><path d="m78.8 131 36.13-36.1a18.45 18.45 0 0 0 25.61-20.83l-14.38 14.37a1.1 1.1 0 0 1-1.56 0L112.14 76a1.1 1.1 0 0 1 0-1.56l14.38-14.37a18.45 18.45 0 0 0-20.83 25.61l-36.13 36.1A18.45 18.45 0 0 0 44 142.61l14.38-14.37a1.09 1.09 0 0 1 1.55 0l12.42 12.46a1.1 1.1 0 0 1 0 1.56L58 156.63A18.44 18.44 0 0 0 78.8 131Zm71.77-80.72-11-3.61-8.63 7.72 2.38 11.34 11 3.6 8.68-7.72Zm-7.68 12.21-4.36-1.43-.94-4.49 3.42-3 4.35 1.42.94 4.49Zm254.89 231.89-36.13 36.13A18.45 18.45 0 0 0 336 351.34L350.42 337a1.1 1.1 0 0 1 1.56 0l12.46 12.47a1.09 1.09 0 0 1 0 1.55l-14.38 14.38a18.45 18.45 0 0 0 20.83-25.61L407 303.62a18.45 18.45 0 0 0 25.61-20.83l-14.38 14.38a1.1 1.1 0 0 1-1.56 0l-12.46-12.46a1.1 1.1 0 0 1 0-1.56l14.38-14.38a18.45 18.45 0 0 0-20.83 25.61ZM326 375.13l11 3.61 8.62-7.73-2.37-11.33-11-3.61-8.63 7.73Zm7.68-12.21 4.36 1.43.94 4.48-3.42 3.06-4.35-1.43-.94-4.48ZM378.25 131l36.13-36.1A18.45 18.45 0 0 0 440 74.07l-14.39 14.37a1.09 1.09 0 0 1-1.55 0L411.59 76a1.1 1.1 0 0 1 0-1.56L426 60.05a18.45 18.45 0 0 0-20.83 25.61L369 121.78a18.45 18.45 0 0 0-25.61 20.83l14.38-14.37a1.1 1.1 0 0 1 1.56 0l12.47 12.46a1.1 1.1 0 0 1 0 1.56l-14.38 14.37A18.44 18.44 0 0 0 378.25 131ZM450 50.28l-11-3.61-8.62 7.72 2.37 11.34 11 3.6 8.62-7.72Zm-7.68 12.21L438 61.06l-1-4.49 3.42-3 4.35 1.42.94 4.49Zm27.56 71.19-11-3.6-8.63 7.72 2.38 11.33 11 3.61 8.63-7.73Zm-7.68 12.21-4.36-1.42-.94-4.47 3.42-3.06 4.35 1.43.94 4.49ZM219.67 82.6l-11-3.61-8.62 7.73 2.37 11.33 11 3.61 8.62-7.73ZM212 94.81l-4.36-1.43-.94-4.48 3.42-3.06 4.35 1.43.94 4.48Zm-12.18 247.94-11-3.61-8.62 7.72 2.38 11.33 11 3.61 8.62-7.72ZM192.13 355l-4.35-1.43-.94-4.49 3.41-3.06 4.35 1.43 1 4.49ZM60.15 202.41l-11-3.6-8.62 7.72 2.37 11.33 11 3.61 8.62-7.73Zm-7.69 12.21-4.35-1.42-1-4.49 3.42-3.06 4.35 1.43 1 4.49Zm86.17 138.07 36.12-36.13a18.44 18.44 0 0 0 25.61-20.83L186 310.11a1.1 1.1 0 0 1-1.56 0L172 297.65a1.1 1.1 0 0 1 0-1.56l14.37-14.38a18.45 18.45 0 0 0-20.83 25.61l-36.12 36.13a18.45 18.45 0 0 0-25.61 20.83l14.37-14.38a1.1 1.1 0 0 1 1.56 0l12.46 12.46a1.1 1.1 0 0 1 0 1.56l-14.4 14.38a18.45 18.45 0 0 0 20.83-25.61Zm71.77-80.75-11-3.61-8.63 7.73 2.38 11.33 11 3.61 8.63-7.73Zm-7.68 12.21-4.36-1.43-.94-4.48 3.41-3.06 4.36 1.43.94 4.48Z" style="fill:none;stroke:#000;stroke-linecap:round;stroke-linejoin:round;opacity:.30000000000000004"/><path style="fill:#263238;stroke:#263238;stroke-linecap:round;stroke-linejoin:round" d="M232 295.89h27.63v111.46H232z"/><path style="fill:#263238;stroke:#263238;stroke-linecap:round;stroke-linejoin:round" d="M78.51 112.03h348.66v211.48H78.51z"/><path style="fill:#630a37;stroke:#263238;stroke-linecap:round;stroke-linejoin:round" d="M71.49 112.03h348.66v211.48H71.49z"/><path style="fill:#fff;stroke:#263238;stroke-linecap:round;stroke-linejoin:round" d="M84.05 119.65h323.53v196.24H84.05z"/><path style="fill:#fff;stroke:#263238;stroke-linecap:round;stroke-linejoin:round" d="M84.05 304.07h323.53v11.82H84.05z"/><path style="fill:#263238;stroke:#263238;stroke-linecap:round;stroke-linejoin:round" d="m247.33 394.84-102.43 6.62v6.67h201.84v-6.67l-99.41-6.62z"/><path style="fill:#fff;stroke:#263238;stroke-linecap:round;stroke-linejoin:round" d="M84.05 119.65h323.53v196.24H84.05z"/><path style="fill:none;stroke:#263238;stroke-linecap:round;stroke-linejoin:round" d="M462.87 406.3H21.94m463.83 0H473.9"/><path d="M398.33 282.83s1.66 59 2.5 69.27 3.34 37.3 3.9 42.31-.56 19.21-.56 19.21l-1.39 1.38 1.11 7s-8.91 5.57-13.36 7.24 1.11 3.89 5 4.45a26.61 26.61 0 0 0 11.47-.59c4.46-1.11 10-3.06 12-3.34s3-2.76 3-5.84-.28-3.34 0-4.74-1.4-7.23-1.68-8.62 3.9-32.85 3.07-42.87-1.12-23.66-1.12-25.05-.55-15.87-.55-15.87 4.73 32 5.29 33.13 9.74 47.59 10 49.82-.84 4.73-.56 6.4 1.67 6.68 1.67 6.68-.84 7.52-3.34 10.86-3.06 6.12-1.67 7.24 4.45 1.11 8.07.28 3.62-.28 7-3.07 4.45-10.85 4.45-11.69 1.4-3.62 1.4-6.68 0-1.67-1.12-6.12-.83-21.71-1.11-31.73-3.62-30.07-3.62-34-1.67-62.08-1.67-62.08-26.74 8.19-48.18-2.98Z" style="fill:#263238;stroke:#263238;stroke-linecap:round;stroke-linejoin:round"/><path d="M410.73 424.35a11.4 11.4 0 0 1-6.84-2.38s-8.91 5.57-13.36 7.24 1.11 3.89 5 4.45a26.61 26.61 0 0 0 11.47-.56c4.46-1.11 10-3.06 12-3.34s3-2.76 3-5.84c0-1.29-.05-2.08-.09-2.67-3.09 1.3-8.22 3.23-11.18 3.1Z" style="fill:#fff;stroke:#263238;stroke-linecap:round;stroke-linejoin:round"/><path d="M417.8 426.57c-5.05.4-10.85 6.53-18.59 5.66a31.78 31.78 0 0 1-9.81-2.45c-2.09 1.57 2.68 3.39 6.14 3.88a26.61 26.61 0 0 0 11.46-.56c4.46-1.11 10-3.06 12-3.34 1.41-.2 2.38-1.58 2.81-3.48-.99.06-2.25.15-4.01.29Zm29.09-.2a12.2 12.2 0 0 1-8.76-3.57s-.84 7.52-3.34 10.86-3.06 6.12-1.67 7.24 4.45 1.11 8.07.28 3.62-.28 7-3.07 4.45-10.85 4.45-11.69a5.16 5.16 0 0 1 .31-1.24 14.9 14.9 0 0 1-6.06 1.19Z" style="fill:#fff;stroke:#263238;stroke-linecap:round;stroke-linejoin:round"/><path d="M448.15 438.11c1.48-1.23 2.53-3.51 3.23-5.74v.06A15.54 15.54 0 0 1 441 439.5a13.35 13.35 0 0 1-8.65-.55 2.25 2.25 0 0 0 .74 1.95c1.39 1.11 4.45 1.11 8.07.28s3.65-.28 6.99-3.07Z" style="fill:#fff;stroke:#263238;stroke-linecap:round;stroke-linejoin:round"/><path d="M397.69 281.06s-.8 3.88.81 5.82 8.08 6.14 23.44 6.31S443.77 290 446 288.5s1.29-7.92 1.29-7.92a68.85 68.85 0 0 1-22.95 5.33c-12.26.49-26.65-4.85-26.65-4.85Z" style="fill:#630a37;stroke:#263238;stroke-linecap:round;stroke-linejoin:round"/><path d="m411 210.14-14.11-7.34s-17.27-15.12-25.76-20.73-15.69-3.74-16.27 3.17 28.64 29.79 34 34.11 6.48 6.48 6.48 6.48.72 38.57 1 44.76 0 10.36 2 12.24 11.37 7.62 24.47 6.9 19-2 21.45-4 3.88-3.74 3.88-7.19 3.73-49.54 3.73-49.54 25.91-17.7 32.53-23.6 7.06-14.25 2.74-15.12-15.26 4.47-19.58 7.2-18.13 7.05-22.88 8.35-9.5 2.73-9.5 2.73-11.95 3.3-24.18 1.58Z" style="fill:#630a37;stroke:#263238;stroke-linecap:round;stroke-linejoin:round"/><path style="fill:none;stroke:#263238;stroke-linecap:round;stroke-linejoin:round" d="m395.31 225.83-4.38-15.85m2.5 10.17-6.65-14.33m65.09 23.17 3.66-13.61m-2.49 10.18 4.99-8.94m-81.22-25.75-9.14 4.98m101.37 6.86 4.36 3.53"/><path d="m411.72 227-3.6 23.25a.94.94 0 0 0 .79 1.07h0a.93.93 0 0 0 1.07-.79L413.3 228Zm13.96.84-1.91 22.81a1.06 1.06 0 0 0 1.12 1.15h0a1.06 1.06 0 0 0 1-1l1.53-23.4Z" style="fill:#fff;stroke:#263238;stroke-linecap:round;stroke-linejoin:round"/><path d="M410.13 209.13s-5.18 5.76-5.61 8.06 3.6 5.18 3.6 5.18-2 .58-.58 1.87 9.79 7.78 12.24 7.78 5.47-3.89 13-5.62 12.81-9.5 12.24-13.1a3.09 3.09 0 0 0-3.75-2.88s1.44-3.16-.86-4.6-7.63-1.44-10.22-1.15-13.58.86-20.06 4.46Z" style="fill:#630a37;stroke:#263238;stroke-linecap:round;stroke-linejoin:round"/><path d="M431.85 223a35.46 35.46 0 0 1-2.86 2.1m12.23-14.68s-3.45 6.63-6 9.5m-27.1 2.45 3.6 2.02" style="fill:none;stroke:#263238;stroke-linecap:round;stroke-linejoin:round"/><path d="M357.88 191.28c-1.58-1.44-5.61-5.47-2.44-10.36s8.06-3.17 12.09-3.17 33.1 7.05 33.1 7.05 6.19-10.65 7.49-12.52 6.33-2 6.33-2 1.15.43.58 1.87-1.59.72-1.87 4-1.88 15.11-4.61 16.55-9.93-.29-9.93-.29L365.94 194" style="fill:#bdbdbd;stroke:#263238;stroke-linecap:round;stroke-linejoin:round"/><path d="m365.94 194 14.06-.69a7.27 7.27 0 0 1-2.54-5.5A14.14 14.14 0 0 1 380 180c-5.8-1.27-11-2.29-12.49-2.29-4 0-8.93-1.73-12.09 3.17s.86 8.92 2.44 10.36" style="fill:#630a37;stroke:#263238;stroke-linecap:round;stroke-linejoin:round"/><path d="M412.72 171.27s-6 11.95-5.75 13.39 1 3.17 1 3.74-3.16 7.92-2.59 9.93 3 11.38 5.33 14.69 3.88 3.31 3.88 3.31-1.15 7.91-.28 10.22 3.74 6 5.47 5.47 11.22-11.66 12.09-15 1.87-14.69 1.87-14.69 1.73-3.16 2.73-4.6a22.78 22.78 0 0 0 5.19-13.39c.28-7.48-6.91-14.39-13.39-16.26S415 170 412.72 171.27Z" style="fill:#bdbdbd;stroke:#263238;stroke-linecap:round;stroke-linejoin:round"/><path d="M411.57 189.84s-3.16 7-2.59 7.34a6 6 0 0 0 5 1c2.73-.72 2.73-2.16 2.73-2.16" style="fill:none;stroke:#263238;stroke-linecap:round;stroke-linejoin:round"/><path d="M414.37 204.81c.4 1 .2 2.08-.43 2.32s-1.46-.41-1.86-1.45-.2-2.08.43-2.32 1.49.41 1.86 1.45Z" style="fill:#263238"/><path d="M414.59 216.33s2.16-.29 3.89-.72 8.64-6.19 8.64-6.19L414 224.53Z" style="fill:#263238;stroke:#263238;stroke-linecap:round;stroke-linejoin:round"/><path d="M418.91 183.65s3.75-2.3 5.76 2.16m-11.8-2.01a2.94 2.94 0 0 0-4 .57" style="fill:none;stroke:#263238;stroke-linecap:round;stroke-linejoin:round"/><path d="M421.22 190.35c0 .83-.42 1.51-.94 1.51s-.94-.68-.94-1.51.42-1.52.94-1.52.94.68.94 1.52Z" style="fill:#263238"/><ellipse cx="410.05" cy="189.57" rx=".86" ry="1.38" style="fill:#263238"/><path d="M432.16 200.92a15 15 0 0 0 1.76 1.12c.47-.85 1.74-3.12 2.55-4.28a22.78 22.78 0 0 0 5.19-13.39c.28-7.48-6.91-14.39-13.39-16.26a17.1 17.1 0 0 0-10.56.81c.19.37.85.79 2.64 1.06 3.89.57 8.49-1.3 10.94.43s3.46 6.91 1.3 8.78-6.62 4.89-4.75 7.34a15 15 0 0 1 2.88 5.47c0 .58-.87 1.15 0 1.3s2 .43 2.44-.87 2.74-3.31 3.89-1-.29 5-1.58 6.76a10.58 10.58 0 0 1-3.31 2.73Z" style="fill:#263238;stroke:#263238;stroke-linecap:round;stroke-linejoin:round"/><path d="m479.08 204.67-11.37-.43s-33.4-8.21-35.84-9.5-1.87-5-2.16-5.91-1-4.75-.29-5.75 6.77-5.62 7.2-6.19-.72-3.31-.43-4 1-.87 1.72-.43a1.92 1.92 0 0 1 .87 1.15s1.44.28 2.73 2.59 1.58 4.17 1.3 5 1.29 2.59 1 3.88a28.16 28.16 0 0 1-2.15 4.61s27.2-1.15 31.81-1.15 15.4-.58 16.69 2 0 7.05-2.16 10.08" style="fill:#bdbdbd;stroke:#263238;stroke-linecap:round;stroke-linejoin:round"/><path style="fill:none;stroke:#263238;stroke-linecap:round;stroke-linejoin:round" d="m441.66 189.7-3.99-.5m1.11-15.62s1.8 3.58 1.38 4.62l-.41 1m3.06 2.01a20.14 20.14 0 0 1-2.65 2.18"/><path d="M488 200.64c2.16-3 3.46-7.49 2.16-10.08s-11.94-2-16.6-2a10.11 10.11 0 0 1 .19 7.77c-1.28 3.67-4.89 6.22-7.35 7.59l1.31.33 11.37.43" style="fill:#630a37;stroke:#263238;stroke-linecap:round;stroke-linejoin:round"/><g style="opacity:.30000000000000004"><path d="M244 166.67a12.31 12.31 0 0 0 1.42-5.73 12.82 12.82 0 0 0-25.64 0 12.48 12.48 0 0 0 5.43 10.27 9.61 9.61 0 0 0-5.66 15.62 13.08 13.08 0 0 0-7.17 11.37c0 7.36 6.71 13.34 15 13.34s15-6 15-13.34a12 12 0 0 0-1.11-5q.73.06 1.47.06c8.58 0 15.54-6 15.54-13.31-.06-6.95-6.28-12.71-14.28-13.28Z"/><circle cx="216.55" cy="142.21" r="8.14"/><path d="M194.61 131.6a2.47 2.47 0 1 0 2.46 2.47 2.48 2.48 0 0 0-2.46-2.47Zm49.8 5.4a6.91 6.91 0 1 0-6.9-6.91 6.9 6.9 0 0 0 6.9 6.91Z"/></g><path d="M267.58 83a2.47 2.47 0 1 0 2.47 2.46 2.46 2.46 0 0 0-2.47-2.46Zm-5.28-20.8a8.14 8.14 0 1 0 11 3.44 8.13 8.13 0 0 0-11-3.44ZM317 118a12.31 12.31 0 0 0 1.42-5.73 12.46 12.46 0 0 0-5.09-10c6.07-3.37 9.31-9.65 8.33-15.35a6.9 6.9 0 1 0-9.69-9.66 16.77 16.77 0 0 0-10.21 1.1 12.27 12.27 0 0 0-1.4-5.73 12.82 12.82 0 0 0-22.72 11.89 12.35 12.35 0 0 0 4.87 5 8.08 8.08 0 0 0-1.07 4 8 8 0 0 0 .42 2.55 11.17 11.17 0 1 0-2 22.07 11.18 11.18 0 0 0-1.95 12.53 11.17 11.17 0 0 0 7.51 20.33c.8 6.7 7.16 11.92 14.89 11.92 8.28 0 15-6 15-13.34a12.15 12.15 0 0 0-1.1-5q.72.06 1.47.06c8.58 0 15.53-6 15.53-13.31-.02-7.03-6.29-12.74-14.21-13.33Zm-75.29-47.81a2.47 2.47 0 1 0 3.33 1 2.46 2.46 0 0 0-3.33-1Zm46.64-18.28A6.9 6.9 0 1 0 279 49a6.9 6.9 0 0 0 9.35 2.91Z" style="opacity:.30000000000000004"/><path d="M215.48 174.83a6.88 6.88 0 1 0-6.88 6.88 6.88 6.88 0 0 0 6.88-6.88Zm-1.92-4.93-9.4 9.4" style="fill:#fff;stroke:#263238;stroke-linecap:round;stroke-linejoin:round"/><path d="M279.33 247.37a6.88 6.88 0 1 0-6.88 6.88 6.88 6.88 0 0 0 6.88-6.88Z" style="fill:#263238;stroke:#263238;stroke-linecap:round;stroke-linejoin:round"/><path d="M336.88 174.83a6.88 6.88 0 1 0-6.88 6.88 6.88 6.88 0 0 0 6.88-6.88Zm-1.92-4.93-9.4 9.4m-81.93 230.52-24 8.34a1.82 1.82 0 0 0-1.21 1.94h0a1.83 1.83 0 0 0 1.93 1.6l24.65-1.47Z" style="fill:#fff;stroke:#263238;stroke-linecap:round;stroke-linejoin:round"/><path style="fill:none;stroke:#263238;stroke-linecap:round;stroke-linejoin:round" d="m220.39 421.7 3.95-4.85m.54 4.5 5.19-6.32m-.68 6.2 7.13-8.75m-2.4 8.49 8.45-10.35"/><path d="M251.83 414.46a6.88 6.88 0 1 0-6 7.66 6.88 6.88 0 0 0 6-7.66Zm-2.5-4.67-8.2 10.46" style="fill:#fff;stroke:#263238;stroke-linecap:round;stroke-linejoin:round"/><path d="m368.47 408.46-2.39 3c-.28-.18-.56-.36-.88-.53a28.75 28.75 0 0 0-3.42-1.62l6-1.78 2.32-.54v-.15h.05-.05v-6.59l-11.44 2.19 2 1.69-.9-.26-8.38 2.49c-3.52-.72-2.27-3.53-6.31-3.92l-3.38-1.21-14.39-.64-2.41.06c-5-2.88-9.6-3.22-11.83 4l-5.56-3.11-6.78 1 3.83-2.9-9.92-2.94v6.77l-7.63 1.25h-12.84v6.77l10.77 1.58a7.24 7.24 0 0 0-1 1.17l-10.18.49-2.46-4.2v6.77l2.46 4.19 9.41-.45v5.67l10.4 3 8.44-2.51a110.36 110.36 0 0 0 11.39 1.66l-1.7 3.47 14.39.64 1.72-3.47c4.19 0 8.41-.21 12.53-.6l5.56 3.11 12.86-1.95-1-4.3c1.54-.46 3-.94 4.23-1.46l10.72 1.58 6.44-3.8v-5.68l2.84-.13v-6.77Zm-70.54-3.1 2.25 1.26c-1.41.31-2.73.65-4 1Zm45.61 18v-3.43l-3.87.11v-.5l-4.09.63c-7.56.22-17.84.53-18.2.53l-.85 1.73c-6.07.32-11.36-.06-14.62-1.89-7.19-4-1.94-8.94 11.74-11s30.58-.48 37.77 3.53c6.46 3.58 2.85 7.93-7.88 10.27Zm32.46-6.15-4-.46 5.23-.25Z" style="fill:#263238;stroke:#263238;stroke-linecap:round;stroke-linejoin:round"/><path style="fill:#263238;stroke:#263238;stroke-linecap:round;stroke-linejoin:round" d="m341.66 394.47-3.29 5.04 3.29-.81v-4.23z"/><path d="M339.67 417.28c-13.67 2.07-30.58.49-37.76-3.52s-1.94-8.95 11.74-11 30.58-.49 37.77 3.52 1.93 8.94-11.75 11m-32.2-22.5-12.87 2 5.58 3.12a56.76 56.76 0 0 0-8.86 2.64l-10.72-1.57-6.44 3.79 10.77 1.58a5.12 5.12 0 0 0-1.81 3.67l-11.8.56 2.46 4.2 11.83-.57a16.55 16.55 0 0 0 2.51 1.69 28.76 28.76 0 0 0 3.42 1.61l-8.35 2.48 10.4 3 8.38-2.49a113.15 113.15 0 0 0 11.41 1.66l-1.72 3.46 14.39.64 1.72-3.46c4.19 0 8.41-.22 12.53-.61l5.56 3.11 12.86-1.94-5.58-3.12a57.86 57.86 0 0 0 8.86-2.64l10.72 1.57 6.44-3.79-10.77-1.58a5.13 5.13 0 0 0 1.81-3.67l11.8-.57-2.46-4.19-11.83.56a16.55 16.55 0 0 0-2.51-1.68 30.4 30.4 0 0 0-3.42-1.62l8.36-2.48-10.41-3-8.38 2.49a110.37 110.37 0 0 0-11.41-1.66l1.72-3.46-14.39-.65-1.72 3.47c-4.19 0-8.41.22-12.52.6l-5.56-3.11" style="fill:#bdbdbd;stroke:#263238;stroke-linecap:round;stroke-linejoin:round"/><path d="M246.75 244.13a36.07 36.07 0 0 0-.39-5.23l9.22-3 1.26-3-2 .59-2.85-8.78-9.25 3a35.57 35.57 0 0 0-6.07-8.31l5.7-7.85 1.26-3-2 2.46-8.77-6.37-5.72 7.87a35 35 0 0 0-9.8-3.16v-9.7h-9.84l-.76-3-1.25 3v9.73a35 35 0 0 0-9.79 3.2l-5.7-7.88-6.41 4.66-1.87-.75-.2.49-1.06 2.53 5.73 7.87a35.33 35.33 0 0 0-6 8.34l-6.19-2-1.78-4-1.26 3-3.64 11.2 9.25 3a35.28 35.28 0 0 0-.37 5.07 36.07 36.07 0 0 0 .39 5.23l-5 1.63-2.94-1.65-1.25 3 3.6 11.24 9.25-3a35.46 35.46 0 0 0 6.08 8.32l-3.55 4.87h-.9l-1.26 3 9.53 6.93 5.72-7.87a35.37 35.37 0 0 0 9.8 3.16v9.7h11.78l1.26-3h-1.26v-6.72a34.94 34.94 0 0 0 9.79-3.2l5.7 7.84 9.54-6.92 1.25-3-2.55 1.23-4.42-6.09a35.37 35.37 0 0 0 6-8.34l9.23 3 3.64-11.2-9.25-3a35.39 35.39 0 0 0 .37-5.14Zm-35.29 22.67a22.67 22.67 0 1 1 22.66-22.67 22.67 22.67 0 0 1-22.66 22.67Z" style="fill:#263238;stroke:#263238;stroke-linecap:round;stroke-linejoin:round"/><path d="m253.25 260.4 3.64-11.21-9.25-3a36.93 36.93 0 0 0 .36-5.08 35.93 35.93 0 0 0-.38-5.22l9.22-3-3.64-11.21-9.25 3a35.46 35.46 0 0 0-6.08-8.32l5.71-7.85-9.58-6.91-5.71 7.86a35.09 35.09 0 0 0-9.81-3.15v-9.7h-11.74v9.73a35 35 0 0 0-9.79 3.2l-5.7-7.85-9.53 6.92 5.72 7.88a35.62 35.62 0 0 0-6 8.34l-9.22-3-3.68 11.17 9.25 3a35.39 35.39 0 0 0-.37 5.07 34.61 34.61 0 0 0 .39 5.23l-9.23 3 3.65 11.21 9.25-3a34.88 34.88 0 0 0 6.07 8.31l-5.7 7.86 9.53 6.92 5.72-7.87a34.62 34.62 0 0 0 9.8 3.16v9.7h11.78v-9.73a35 35 0 0 0 9.79-3.2l5.7 7.85 9.53-6.93-5.7-7.84a35.33 35.33 0 0 0 6-8.34Zm-63.2-19.29a22.67 22.67 0 1 1 22.66 22.67 22.66 22.66 0 0 1-22.66-22.67Z" style="fill:#bdbdbd;stroke:#263238;stroke-linecap:round;stroke-linejoin:round"/><path d="M308.17 181.45a34.71 34.71 0 0 0-.39-5.23l9.23-3 1.25-3-2 .59-2.89-8.81-9.25 3a35.61 35.61 0 0 0-6.08-8.31l5.71-7.85 1.25-3-2 2.46-8.77-6.37-5.71 7.87a35.11 35.11 0 0 0-9.81-3.16v-9.7h-9.77l-.75-3-1.26 3v9.73a35 35 0 0 0-9.79 3.2l-5.7-7.85-6.44 4.66-1.86-.74-.21.48-1.04 2.58 5.72 7.87a35.19 35.19 0 0 0-6 8.35l-6.19-2-1.78-4-1.25 3-3.64 11.2 9.25 3a35.39 35.39 0 0 0-.37 5.07 34.71 34.71 0 0 0 .39 5.23l-5 1.63-3.02-1.69-1.26 3 3.64 11.2 9.26-3a35.28 35.28 0 0 0 6.07 8.31l-3.54 4.88h-.91L242 214l9.53 6.93 5.71-7.87a35.11 35.11 0 0 0 9.81 3.16V226h11.78l1.26-3h-1.26v-6.72a35 35 0 0 0 9.79-3.2l5.7 7.85 9.53-6.93 1.26-3-2.56 1.22-4.42-6.08a35.19 35.19 0 0 0 6-8.35l9.23 3 3.64-11.2-9.26-3a35.39 35.39 0 0 0 .43-5.14Zm-35.29 22.67a22.67 22.67 0 1 1 22.67-22.67 22.67 22.67 0 0 1-22.67 22.67Z" style="fill:#263238;stroke:#263238;stroke-linecap:round;stroke-linejoin:round"/><path d="m314.67 197.72 3.64-11.21-9.25-3a35.39 35.39 0 0 0 .37-5.07 36 36 0 0 0-.39-5.23l9.22-3-3.64-11.21-9.25 3a34.88 34.88 0 0 0-6.07-8.31l5.7-7.86-9.53-6.92-5.72 7.87a34.72 34.72 0 0 0-9.8-3.16v-9.7h-11.78v9.73a35 35 0 0 0-9.79 3.2l-5.7-7.85-9.53 6.93 5.72 7.87a35.33 35.33 0 0 0-6 8.34l-9.23-3-3.64 11.22 9.25 3a35.42 35.42 0 0 0-.37 5.08 35.93 35.93 0 0 0 .39 5.22l-9.22 3 3.64 11.21 9.25-3a35.46 35.46 0 0 0 6.08 8.32l-5.75 7.81 9.53 7 5.72-7.86a35.13 35.13 0 0 0 9.8 3.15v9.7h11.79v-9.72a34.89 34.89 0 0 0 9.78-3.21l5.71 7.85 9.53-6.92-5.72-7.88a35.58 35.58 0 0 0 6-8.34Zm-63.2-19.28a22.67 22.67 0 1 1 22.67 22.66 22.67 22.67 0 0 1-22.67-22.66Z" style="fill:#bdbdbd;stroke:#263238;stroke-linecap:round;stroke-linejoin:round"/><path style="opacity:.2" d="M296.23 256.29h.09l1.51-1.37-1.6 1.37zm-1.71 4.71-.48.25c.02.13.11.14.48-.25Zm.83-1.73c.14-.18-1 1-1.38 1.48.38-.18 1.46-1.19 1.38-1.48Z"/><path d="m292.75 263.56 4.23-1.37c.32-.32.49-.6.26-.76-.72 1-.63.36-1.15.73v.09c-.13.09-.52.36-.37.09a24.15 24.15 0 0 0 2.94-2c-.42.22.12-.61.14-.76.8-.65.21.19.3.38.4-.37 1.28-.73 1.35-1.29.34-.74-.88.45-1.23.45l2.48-1.83h-.12a1.77 1.77 0 0 0 .8-.65c.05-.37-.49.09-.77.46.89-1.38 2.52-1.45 3-2.91l-.38.24c.14-.19.27-.27.39-.27l.77-.48c0-.1 0-.29-.09-.2l.77-.45c1.31-1 0-.66.28-1.12l-.06.06c.3-.41.42-.83.13-.62l1.43-1c-.16 0-.29 0-.32-.1l.32.1c.77-.18 2.62-1.89 3.13-1.34a2.43 2.43 0 0 0 .14-.2c0-.1-.05-.21-.07-.32a2.12 2.12 0 0 1-.4.33l.4-.33a22.83 22.83 0 0 1-.4-3.54c-.33.27-.57.51-.58.69l.14-.08-.05.28a.2.2 0 0 1-.09-.2c-.95.57-1.64 1.51-2.39 2l.2.28a5.41 5.41 0 0 0-1.18.92s.11 0 .21 0l.55-.43a1.26 1.26 0 0 1-.55.43 40.83 40.83 0 0 0-3.51 3.16c.22.1.32.2 1-.35-.75 1.2-2.89 2.28-4.28 3.85h.22l-1 .63c.25-.09.22.1.33.2-1.38 1.47-3.15 3.22-4.36 3.48.51-.28-.36.93.66.29a24.23 24.23 0 0 0-3.37 2.82Zm7.83-5.91.93-.73-.95.92Zm-2.41 2.21-.82.82-.51.27Zm-4.17 1.43c0-.19.26-.71-.4.2Zm.09-3.07 1.66-1-.62.27 1-.73c-.3-.1-1.44.53-2.04 1.46Zm.91-.08a2.12 2.12 0 0 0-.51.37 3.17 3.17 0 0 1 .51-.37Zm0 0c.21-.06-.06.39.6-.07-.01-.19-.28-.07-.6.07Zm33.6 25.3.51-.78c-.74-.04-.4.39-.51.78Zm-31.91-27.13-.37-.02-.1.09.47-.07z" style="opacity:.2"/><path d="M337.19 218.46c.41-.17 1.05-.19 1.27-1-.77.06-.61.63-1.27 1Zm-8.75 65.24a.49.49 0 0 0 .16-.26Zm14.09-73.6h-.16c-.15.27-.22.49-.14.52a1.24 1.24 0 0 1 .3-.52Zm-4.24 10.9h-.24c1.43-1 2.54-3.05 3.78-4.42 0 .18-1.08 1.09-.64 1.29l1.74-1.56c0-.18.71-.92.09-.65a2.67 2.67 0 0 0-.56.64l.05-.37c1.72-1.37.39.57.71.85.71-.92 1.3-.91 1.85-1.46-.05-.56-1.4.73-1-.3a7.57 7.57 0 0 1 3-2.28 2 2 0 0 1 .33-.89c-.45-.2-.91-.39-1.37-.57-2.54 2.34-5.47 3.94-7.44 7.05h.11l-2.19 1.46c-.29.37-.1.75-.55 1.39 0-.3-.34 0-.73.4.74.07 1.46.17 2.17.3a2.94 2.94 0 0 1 .89-.88Zm-38.61 33.3c.28-.37-.06-.47.71-.93.08.29.75.49 1.49-.53a6.15 6.15 0 0 0-2.26 1Zm2.13-.85 1-1.25c-1.01.21-.71.69-1 1.25Zm0 0-.31.41a1.34 1.34 0 0 0 .31-.41Zm9.01-12.72h.01v-.01l-.01.01zm50.41-18.06-.21-.26c-.15.13-.3.27-.46.43.02.24.37.04.67-.17Zm-10.82 36.46c.37-.58.83-.45 1.15-.77-.09-.26-.37-.14-.59-.12-.21.26-.41.51-.63.76a.24.24 0 0 0 .07.13Zm1.11-1.06c0-.21.37-.57.67-1-.46-.07-.87.93-.67 1Zm-5.85 7.86c-.33.18-1.15.08-1.41.83l.5-.26-.07.11.28.08c-.59-.37.46-.55.7-.76Zm8.46-34.77-.45.65.4-.37.05-.28z" style="opacity:.2"/><path d="M311.65 251a10 10 0 0 1-1.13 1l.19.29a5.54 5.54 0 0 0-1.18.91.26.26 0 0 0 .21 0l.56-.44a1.33 1.33 0 0 1-.56.44 42.25 42.25 0 0 0-3.46 3.13c.22.1.33.2 1-.35-.75 1.2-2.9 2.28-4.29 3.85h.23l-1 .63c.25-.08.22.11.32.2l-.27.28a35.45 35.45 0 0 0 5.84 7.9l-5.7 7.85 9.53 6.93 5.71-7.87a35.44 35.44 0 0 0 9.81 3.16v2.29a.79.79 0 0 0 .32-.64l-.25.11c.08-.12.16-.16.25-.14l.51-.22c0-.08 0-.22-.11-.18l.51-.19c.83-.52-.16-.53 0-.83.15-.26.16-.56 0-.46l.92-.49a.31.31 0 0 1-.27-.15l.27.15c.57 0 1.68-.95 2.2-.41.14-.23.2-.47 0-.47a.83.83 0 0 1-.3.22l.3-.22c.56-.49-.53-.29.39-1.05-.1-.1-.17 0-.34.11.21-.23.33-.29.43-.27a.49.49 0 0 1-.14-.27c.2.2.51-.2.65-.43h-.63a1 1 0 0 0 .83-.52h-.45c.65-.5.5.42 1-.46l-.42.84c.8-.66 1 0 1.5-.13 1.11-.43 1.44-2 2.7-1.9-.13-.31-.3-.29-.27-.69a1.85 1.85 0 0 1-1.46.47c-1.26.61.59 1.06-.95 1.58-.22-.33.09-.66.52-.81-.22-.27-.73-.07-1.07 0 .72-.46 1.27-1.61 1.67-2h-.05.09a1.9 1.9 0 0 0 1.09-.62s0-.09 0-.2a.18.18 0 0 1 0 .2c.15.22 1.21-.57 1.3.09.73-.54-.13-.92.92-1.1-.55-.09.19-.64-.35-.65.06.49-1.07.72-1.59.85l.75-1.09c-.14.31.38.18.55.09l-.14-.38c.78.49 1.16-2.07 2.36-1.8-.33.25-.36.72-.83.52-.35.72.59.37.56.84 1.09-.58 1.94-2.26 3.31-2.69-.36 0-.75.41-1.05.18.52-.81 1.92-1 2.92-1.56l-.47-.2c.94-.36.13-.38.94-1 0 .07 0 .29.2.12.55-.59-.22-.33.07-.79.59-.1.61-.26.61-.48A22.66 22.66 0 0 1 311.65 251Zm33.11 12.8c.4.24-.5.88-.64 1.18-.25-.52.74-.44.64-1.15Zm16.48-39.8a1.25 1.25 0 0 0 .14-.31c-.12.15-.15.24-.14.31Zm.22.14a.52.52 0 0 0 .35-.15.68.68 0 0 0-.35.15Zm0 0c-.12 0-.2 0-.22-.13a16.67 16.67 0 0 1-2.54 2.92c-.18.47 1-.26 1.35-.44-1.23-.4 1.08-1 1.45-1.94-.25.09-.67.55-.9.54a3 3 0 0 1 .86-.95ZM328.52 283a6 6 0 0 0-1.09.11.59.59 0 0 0 1.09-.11Zm30.74-58.4 1.62-1.56c-.41-.39-.67.64-1.15.73.07-.53.7-1 1.23-1.44a37.68 37.68 0 0 0-2.56-2.94l5.7-7.85-6.86-5c-.59.56-1.27 1.33-2 1.91l.21.19-.78.55.36-.09c-.67.64-1.79 1.09-2.38 2 .42-.55.86-.35.95-.16l-2.34 1.64c.09.19-.74 1.11 0 .66l-1 .54.22.1c-2.82 3.41-6.67 4.93-9.07 8.73h.11l-.4.27a22.74 22.74 0 0 1 11.26 9.18 16.57 16.57 0 0 0 3-2.49c-.23 0-.64.36-.75.36 1.19-1 3.29-1.72 3.57-2.93-.68.34-1.48.76-2.21 1.16a.71.71 0 0 1-.39.22c-.46.26-.89.5-1.21.7.59-.81.88-.64 1.21-.7l.39-.22a2.72 2.72 0 0 0 .51-.73l-.61.18c1.25-1.39 1.48-.53 2.48-1l.51-1.11a12.27 12.27 0 0 1 2.61-2.51l-.23-.28c-.6.65-1.36 1.66-2 1.89Zm-19.69 46.58-.2.17a.5.5 0 0 0 .2-.17Z" style="opacity:.2"/><path d="M339 271.42c.17.22.19.12.39-.07-.3.14-.58-.19-.8.37.15-.02.21-.28.41-.3Zm1.48-1.49c-.18-.66-1 .28-1.25.74.26-.06.77-1.01 1.25-.74Zm-1.14-.45.05.35.31-.39-.36.04zm3.41-3.28.51-.27-.01-.07-.5.27v.07zm-.38 3.86c-.49-.34-.2.49-.8.66.2.2.68-.21.95-.21.15-.23-.28-.15-.47-.2a.78.78 0 0 1 .32-.25Zm-1.32 1.94-.18.16a.32.32 0 0 0 .18-.16Zm0 0 .3-.25c-.22-.16-.2.07-.3.25Zm-3.19-55.31.41-.46c-.44.65 1-.36.28.57-.29.37.75-.36 1.05-.83-.22-.1-.92.73-.86.27l.29-.37c-.43.56-.69-.11-1.17.82Zm22.72 34.85c-.25.14-.34.11-.46.56.25-.1.48-.42.46-.56Zm-6.84 4.46c-.08 0-.63.64-.83.45l.15.45c.22-.35.75-.4.68-.22.04-.43.38-.53 0-.68Zm3.59-4c-.22.34-1 .39-.78.87l.74-.47c-.02-.23.32-.33.04-.4Z" style="opacity:.2"/><path d="M368.53 244.13a34.71 34.71 0 0 0-.39-5.23l9.23-3-3.64-11.2-9.25 3c-.53-1-1.11-1.94-1.72-2.88a3.24 3.24 0 0 1-1.07.86c0 .18.4-.28.23.1-2 1.93-5.32 4.48-7.44 7.07-.3-.15-.76.08-1.31.48a22.65 22.65 0 0 1-1.17 23.58 1.7 1.7 0 0 1 .63-.17c-.24-1.17 1.71-2 1.18-2.54 0 .07.38.1.52-.2H354c.41-.91 1.14-.16 1.43-.69-.11-.09-.27 0-.46-.06.76-1 2.05-.72 2.61-1.93-.1 0-.19-.05-.26.06s.06-.18.49-.34l-.11.52c1.1.17 1-1.51 1.87-2.07-.19 0-.74.48-.62 0 .47-.48 1.1.25 1.34-.65-.33.18-.57-.21-.88 0a1.52 1.52 0 0 1-.25.26.78.78 0 0 1 .25-.26c.33-.41.4-.86.78-.75a.28.28 0 0 0 0-.34.37.37 0 0 1-.18 0c0-.08.11-.06.18 0 .43 0 .67-.56.86-.86l-.18-.06c1.1.18.79-.73 1.44-1.3l-.28-.08c.33-.18.94-.35 1.11-1.05h-.45c.51-.2.83-1.2 1.46-1.16.07-.19-.73-.07-.18-.67.27 0 .86-.3.81-.66-.1-.1-.29-.15-.34.11-.08.11 0 .07.1.1h-.36c.28-.6.52-.2.88-.77 0-.22-.36 0-.54-.09l2.14-1.38c.2.12.06.43.42.46l-.54.67c0 .55.63 0 1-.21l-.39.44a.07.07 0 0 0 .1 0l-.32.3c1.19-.49-.36 1.34.81.71a1.62 1.62 0 0 1-.95.28c-.49.34-.21.41-.27.67l.85-.37c-1.05.86.38.18-.13 1.06-1 .61-.65 1.87-1 2.31-.88.77 0-.62-.65-.26-.49.41 0 .4-.27.75l-.55-.16c-.57.46.31.36-.11.52-.19.63.27 0 .65.18-.18 0-.76.33-.81.66.1.1.66-.43.35 0-1.46 1.09-1.37 1.81-2.56 2.9l.28.08c-.17.09-.35.11-.41.3h.18a16.75 16.75 0 0 0-2.25 1.89l.6-.17-.93.43.4.24c-.55-.08-1.14.91-1.87 1.46l.21.19-.51.27h.27c-.39.37-1.18.48-1.46 1.09.22-.35.61-.1.72.07l-1.5.81c.11.16-.35.72.16.52l-.69.21.2.13c-1.51 2.1-4.23 2.49-5.33 5h.09l-1.43.68c-.15.24.08.57-.14 1-.15-.45-.64.57-1.09.51-.13.38.2.2.39.25-.72 1.31-2 1.62-2.92 2.94a11.36 11.36 0 0 1 1.39-2.35c-1.07.73-.92 1.18-2 2.05l.59-.32c-.06.95-1.72 1.23-1.37 1.88-.64.5-1.63.49-2.24 1.28l.73.14-.63.64-.31-.29c-.22.19-.27.35-.22.45a1.52 1.52 0 0 1 .47 0c-.22.12-.41.09-.47 0-.77.09-1.19.89-2.06 1.23l.09.21c.1 0 .18 0 0 .17v-.17a1.15 1.15 0 0 1-.24 0c.15.38-.43.76-.21 1 .25-.14.83-.45.63-.57.79-.19-.43.76-.74 1.08.2-.48-.28-.07-.53.06 0 .07.09 0 .18.06-.43.76-1.4.21-1.28 1.14l-.38-.18-.27.68c-.6-.52-.72.61-1.32.17-.55.53.39.25.14.38-.39.62-1.78 1-1.69 1.43h.09v.22a.32.32 0 0 1-.12-.18c-.63.25-1 .84-1.46 1.1l.21.27a1.88 1.88 0 0 0-.74.47.23.23 0 0 0 .17 0l.34-.23a.46.46 0 0 1-.34.23 15.08 15.08 0 0 0-2.08 1.75c.2.13.3.23.71-.07-.34.8-1.81 1.2-2.58 2.15h.18l-.43.18v.26a.19.19 0 0 0 .06.07l-.06.06v3.3h11.78v-9.73a35 35 0 0 0 9.79-3.2l5.7 7.84 9.53-6.92-5.72-7.88a35.13 35.13 0 0 0 6-8.34l9.22 3 3.65-11.2-9.26-3a35.39 35.39 0 0 0 .37-4.88Zm-10.67 6.43c.44-.69.15-.16.8-.66ZM298 244.13a34.71 34.71 0 0 0 .39 5.23l-9.23 3 2.83 8.7a10.84 10.84 0 0 0 2.12-2.64l-1.54.91c.71-.83 2.37-1.83 1.84-2.22-.73 1-.64.36-1.16.73v.09c-.13.09-.52.36-.37.09a24.24 24.24 0 0 0 2.95-2c-.43.22.11-.61.13-.76.8-.65.21.19.3.38.4-.37 1.28-.73 1.36-1.29.33-.74-.89.45-1.24.44l2.42-1.79h-.12a1.84 1.84 0 0 0 .8-.65c0-.37-.48.09-.77.46.89-1.38 2.52-1.45 3-2.91l-.38.24c.15-.19.27-.27.39-.28l.77-.49c0-.09 0-.28-.08-.19l.76-.45c1.32-1 0-.66.28-1.13l-.06.06c.3-.41.42-.82.13-.61l1.43-1c-.16 0-.28 0-.32-.1l.32.1c.77-.18 2.62-1.9 3.13-1.34.29-.37.44-.72.22-.66l-.06.06a2.7 2.7 0 0 1-.48.41l.48-.41.05-.06c.94-.86-.62-.19.91-1.57-.1-.1-.24.09-.5.27.37-.39.56-.51.68-.52a.39.39 0 0 1-.1-.31c.21.19.77-.46 1.06-.83l-.85.18a2.77 2.77 0 0 0 1.31-1l-.61.17c.51-.43.65-.36.78-.32a22.67 22.67 0 0 1 19.55-18.48 1.24 1.24 0 0 0 .45-.76c.21.09 0 .4-.31.75q.3 0 .6-.06h-.15c1.41-.82.32-.56 1.64-1.66 0 .09-.05.38.23.1 1-1-.19-.38.38-1.12 1.75-.72.25-.93 2.07-2.21h-.23c1.43-1 2.53-3 3.77-4.42 0 .18-1.08 1.09-.64 1.29L340 212c0-.18.71-.92.09-.65a2.67 2.67 0 0 0-.56.64l.06-.38c1.71-1.36.39.58.7.86.71-.92 1.3-.91 1.85-1.46 0-.57-1.4.73-1-.3a3.18 3.18 0 0 1 .67-.76c-.92-.22-1.84-.42-2.78-.58v-9.7h-11.76v9.73a35 35 0 0 0-9.79 3.2l-5.7-7.85-9.53 6.93 5.75 7.82a35.33 35.33 0 0 0-6 8.34l-9.22-3-3.65 11.2 9.26 3a35.28 35.28 0 0 0-.39 5.09Zm-5.75 15-.83.08c.58-.47.91-.21.78-.09Zm2.26-2.77-.51.27 1.33-1.09Zm3.21-2.84v-.19l.92-.73Z" style="opacity:.2"/><path d="M350.58 261.78c-.2-.13-.58.38-.63 0l.15-.23c-.22.34-.56-.23-.75.4l.23-.28c-.21.42.71-.07.34.51-.15.26.52-.1.66-.4Zm11.11-14.03h.09a.63.63 0 0 1 .07-.27c-.1.04-.19.09-.16.27Zm3.16-2.46.25-.13c.13-.38-.3-.22-.54 0 .1.01.11.15.29.13Zm-4.15 6.49c.41-.29.74.14.93-.42-.32.25-.63-.25-.93.42Zm.46-4.66c.22 0 .75-.26.89 0 .28-.46.57-.93-.11-.82l-.3.4c.16-.17.17-.09.26-.07-.13.37-.49.37-.74.49Zm.92.26a.32.32 0 0 0 0-.25l-.2.37c.12-.02.17-.03.2-.12ZM350 262.71c-.6-.11-.36.37-.8.52.28-.04.8.07.8-.52Zm5-57.63a.3.3 0 0 1 0-.1l-.19-.14c-.49.39-1.15.71-1 1.15Zm-55.88 55.54h.08l1.52-1.37-1.6 1.37zm-1.12 1.2 1-.73a2.64 2.64 0 0 0-1.68 1l.92-.3.35-.21Zm42.33-39.22.16.05a1.16 1.16 0 0 0 .86-.86c-.65.05-.65.46-1.02.81Zm2.16-2.3c-.22-.09-.92.73-.86.27l.29-.37c-.43.56-.69-.1-1.17.82l.41-.45c-.44.64 1-.37.28.56-.29.37.75-.36 1.05-.83Zm-38.1 37.89a1.44 1.44 0 0 0 .31-.4Zm.37-1.02a6.36 6.36 0 0 0-2.25 1l.05.47c.29-.37-.05-.47.72-.93.07.29.72.48 1.48-.54Zm49.81-52.56-.34.47a5.6 5.6 0 0 0 .49-.36Zm-49.87 53.18 1-1.26c-1.01.21-.7.69-1 1.26Zm43.24-45.72c-.15.09-.27.14-.33.08v.57a2.16 2.16 0 0 1 .59-.52Zm-2.82 2.85c0-.28.71-.92 1.27-1.57-.59-.01-1.5 1.47-1.27 1.57Zm-45.54 45.72-.38-.02-.1.1.48-.08z" style="opacity:.2"/></svg>