<svg width="109" height="33" viewBox="0 0 109 33" fill="none" xmlns="http://www.w3.org/2000/svg"><path d="M49.641 8.17c4.742-.087 8.427 3.588 8.341 8.17.086 4.58-3.599 8.256-8.34 8.168-4.772 0-8.313-3.531-8.313-8.169 0-4.637 3.541-8.168 8.312-8.168Zm0 2.655c-3.142 0-5.37 2.218-5.37 5.514 0 3.297 2.228 5.514 5.37 5.514s5.4-2.217 5.4-5.514c0-3.296-2.229-5.514-5.4-5.514ZM60.03 8.608h2.887v1.75h.057c1.172-1.372 3.085-2.187 5.371-2.187 4.429 0 7.827 3.529 7.827 8.168.086 4.581-3.484 8.257-7.913 8.169-2.171 0-4.17-.847-5.227-2.1h-.058v8.227h-2.943V8.608Zm8.028 2.217c-2.857 0-5.084 2.013-5.084 4.464v2.1c0 2.452 2.171 4.464 5 4.464 3.085 0 5.257-2.217 5.257-5.514 0-3.296-2.086-5.514-5.17-5.514h-.003ZM85.566 8.17c4.627 0 7.999 3.502 7.999 8.17v1.02h-13.14c.028 1.372.542 2.479 1.542 3.326s2.228 1.285 3.714 1.285c2.142 0 3.885-.992 5.227-2.946l2.114 1.693c-1.686 2.537-4.142 3.792-7.341 3.792-4.972 0-8.2-3.238-8.2-8.11s3.372-8.227 8.085-8.227V8.17Zm5.057 6.885c-.172-2.452-2.4-4.347-5.028-4.347-2.83 0-4.943 1.897-5.113 4.347h10.141Zm10.957-.059c3.085-.495 4.113-1.05 4.113-2.1 0-1.314-1.37-2.159-3.457-2.159-2.401 0-4.085 1.285-4.515 3.385l-2.8-.613c.285-1.604 1.085-2.918 2.4-3.88 1.344-.963 2.971-1.458 4.886-1.458 4.027 0 6.6 2.07 6.6 5.367v10.533h-2.772v-1.868h-.057c-1 1.428-3.085 2.305-5.457 2.305-3.457 0-5.6-1.78-5.6-4.61s1.858-4.172 6.657-4.902h.002Zm4.343.73h-.058c-.37.701-1.37 1.109-3.771 1.546-3.084.555-4.285 1.255-4.285 2.538 0 1.428 1 2.07 3.257 2.07 2.571 0 4.857-1.545 4.857-3.325v-2.83.001ZM14.327 28.737c-4.74-1.01-8.478-4.825-9.466-9.666-1.56-7.64 3.612-14.425 10.578-15.316.893-.115 1.559-.893 1.559-1.812 0-1.104-.953-1.951-2.026-1.813C7.02 1.157.887 8.143 1 16.57c.12 8.8 7.153 15.982 15.77 16.105 8.254.117 15.095-6.145 16.101-14.268.135-1.096-.692-2.069-1.776-2.069-.9 0-1.663.682-1.774 1.592-.873 7.114-7.518 12.398-14.996 10.804l.002.002Z" fill="#630A37"/><path d="M30.91 14.266c1.154 0 2.088-.954 2.088-2.131V3.878C33 1.736 31.3 0 29.202 0h-8.085c-1.153 0-2.087.954-2.087 2.132 0 .945.61 1.776 1.497 2.043 4.021 1.216 7.192 4.454 8.382 8.56a2.094 2.094 0 0 0 2.002 1.53v.001Z" fill="#630A37"/></svg>